<?xml version="1.0" encoding="UTF-8" standalone="no"?>
<!-- Created with Inkscape (http://www.inkscape.org/) -->
<svg
   xmlns:dc="http://purl.org/dc/elements/1.1/"
   xmlns:cc="http://web.resource.org/cc/"
   xmlns:rdf="http://www.w3.org/1999/02/22-rdf-syntax-ns#"
   xmlns:svg="http://www.w3.org/2000/svg"
   xmlns="http://www.w3.org/2000/svg"
   xmlns:xlink="http://www.w3.org/1999/xlink"
   xmlns:sodipodi="http://sodipodi.sourceforge.net/DTD/sodipodi-0.dtd"
   xmlns:inkscape="http://www.inkscape.org/namespaces/inkscape"
   width="256"
   height="256"
   id="svg2412"
   sodipodi:version="0.32"
   inkscape:version="0.45.1"
   version="1.0"
   sodipodi:docbase="/home/smart_idiot/QuestHelper"
   sodipodi:docname="art.svg"
   inkscape:output_extension="org.inkscape.output.svg.inkscape"
   inkscape:label="Image">
  <defs
     id="defs2414">
    <radialGradient
       gradientUnits="userSpaceOnUse"
       gradientTransform="matrix(0.8500516,-8.3141387e-2,9.9091691e-2,1.462186,22.197473,-575.4387)"
       r="128.06168"
       fy="1405.7668"
       fx="1070.7589"
       cy="1443.2332"
       cx="1101.7786"
       id="radialGradient4332"
       xlink:href="#linearGradient19105"
       inkscape:collect="always" />
    <radialGradient
       gradientUnits="userSpaceOnUse"
       r="165.13991"
       fy="1381.0229"
       fx="260.66202"
       cy="1381.0229"
       cx="260.66202"
       id="radialGradient19084"
       xlink:href="#linearGradient19078"
       inkscape:collect="always" />
    <linearGradient
       id="linearGradient3143">
      <stop
         id="stop3145"
         offset="0"
         style="stop-color:#656565;stop-opacity:1;" />
      <stop
         style="stop-color:#8c8c8c;stop-opacity:1;"
         offset="0.4020443"
         id="stop3153" />
      <stop
         style="stop-color:#777777;stop-opacity:1;"
         offset="0.54644352"
         id="stop3151" />
      <stop
         id="stop3155"
         offset="0.84582621"
         style="stop-color:#b7b7b7;stop-opacity:1;" />
      <stop
         id="stop3147"
         offset="1"
         style="stop-color:#a2a2a2;stop-opacity:1;" />
    </linearGradient>
    <linearGradient
       id="linearGradient3167">
      <stop
         style="stop-color:#b7b7b7;stop-opacity:0.32774389;"
         offset="0"
         id="stop3175" />
      <stop
         style="stop-color:#ffffff;stop-opacity:0.52439022;"
         offset="1"
         id="stop3177" />
    </linearGradient>
    <linearGradient
       id="linearGradient5125">
      <stop
         style="stop-color:#78552f;stop-opacity:1;"
         offset="0"
         id="stop5127" />
      <stop
         id="stop5131"
         offset="0.5"
         style="stop-color:#966c22;stop-opacity:1;" />
      <stop
         style="stop-color:#bea467;stop-opacity:1;"
         offset="1"
         id="stop5129" />
    </linearGradient>
    <linearGradient
       id="linearGradient7113">
      <stop
         id="stop7115"
         offset="0"
         style="stop-color:#ffffff;stop-opacity:1;" />
      <stop
         id="stop7119"
         offset="1"
         style="stop-color:#ffffff;stop-opacity:0;" />
    </linearGradient>
    <linearGradient
       id="linearGradient8103">
      <stop
         id="stop8105"
         offset="0"
         style="stop-color:#9b7013;stop-opacity:0;" />
      <stop
         id="stop8107"
         offset="1"
         style="stop-color:#684200;stop-opacity:0.5411765;" />
    </linearGradient>
    <linearGradient
       id="linearGradient8113">
      <stop
         id="stop8115"
         offset="0"
         style="stop-color:#967e39;stop-opacity:1;" />
      <stop
         style="stop-color:#bfa652;stop-opacity:1;"
         offset="0.5"
         id="stop8123" />
      <stop
         id="stop8117"
         offset="1"
         style="stop-color:#ece1b0;stop-opacity:1;" />
    </linearGradient>
    <linearGradient
       id="linearGradient11042">
      <stop
         id="stop11044"
         offset="0"
         style="stop-color:#e7bb53;stop-opacity:1;" />
      <stop
         id="stop11046"
         offset="1"
         style="stop-color:#bf6708;stop-opacity:1;" />
    </linearGradient>
    <linearGradient
       id="linearGradient4175">
      <stop
         id="stop4177"
         offset="0"
         style="stop-color:#d5eeef;stop-opacity:1;" />
      <stop
         id="stop4179"
         offset="1"
         style="stop-color:#55b8ff;stop-opacity:1;" />
    </linearGradient>
    <linearGradient
       id="linearGradient4193">
      <stop
         id="stop4195"
         offset="0"
         style="stop-color:#956f00;stop-opacity:1;" />
      <stop
         style="stop-color:#fcf5e1;stop-opacity:1;"
         offset="0.94262296"
         id="stop4201" />
      <stop
         id="stop4197"
         offset="1"
         style="stop-color:#ffca2d;stop-opacity:1;" />
    </linearGradient>
    <linearGradient
       id="linearGradient10639">
      <stop
         id="stop10641"
         offset="0"
         style="stop-color:#ffffff;stop-opacity:1;" />
      <stop
         id="stop10643"
         offset="1"
         style="stop-color:#858585;stop-opacity:1;" />
    </linearGradient>
    <linearGradient
       id="linearGradient12979">
      <stop
         id="stop12981"
         offset="0"
         style="stop-color:#fcd6b2;stop-opacity:1;" />
      <stop
         id="stop12983"
         offset="1"
         style="stop-color:#fff2e9;stop-opacity:1;" />
    </linearGradient>
    <linearGradient
       id="linearGradient12993">
      <stop
         id="stop12995"
         offset="0"
         style="stop-color:#000000;stop-opacity:1;" />
      <stop
         style="stop-color:#757575;stop-opacity:1;"
         offset="0.48524591"
         id="stop13001" />
      <stop
         id="stop12997"
         offset="1"
         style="stop-color:#646464;stop-opacity:1;" />
    </linearGradient>
    <linearGradient
       id="linearGradient13059">
      <stop
         id="stop13061"
         offset="0"
         style="stop-color:#2724c9;stop-opacity:1;" />
      <stop
         id="stop13063"
         offset="1"
         style="stop-color:#15136f;stop-opacity:1;" />
    </linearGradient>
    <linearGradient
       id="linearGradient14149">
      <stop
         id="stop14151"
         offset="0"
         style="stop-color:#ff4f4f;stop-opacity:1;" />
      <stop
         id="stop14153"
         offset="1"
         style="stop-color:#1100fd;stop-opacity:1;" />
    </linearGradient>
    <linearGradient
       id="linearGradient14168">
      <stop
         id="stop14170"
         offset="0"
         style="stop-color:#ffffff;stop-opacity:1;" />
      <stop
         style="stop-color:#7f7f7f;stop-opacity:1;"
         offset="0.77590162"
         id="stop14176" />
      <stop
         id="stop14172"
         offset="1"
         style="stop-color:#000000;stop-opacity:1;" />
    </linearGradient>
    <linearGradient
       id="linearGradient19078">
      <stop
         id="stop19080"
         offset="0"
         style="stop-color:#000000;stop-opacity:1;" />
      <stop
         style="stop-color:#000000;stop-opacity:1;"
         offset="0.67629939"
         id="stop4444" />
      <stop
         style="stop-color:#5c5c5c;stop-opacity:1;"
         offset="0.74065107"
         id="stop19086" />
      <stop
         id="stop19088"
         offset="0.8907333"
         style="stop-color:#aeaeae;stop-opacity:0.66310978;" />
      <stop
         id="stop19082"
         offset="1"
         style="stop-color:#3e3e3e;stop-opacity:0.43597561;" />
    </linearGradient>
    <linearGradient
       id="linearGradient19105">
      <stop
         id="stop19107"
         offset="0"
         style="stop-color:#fff8ba;stop-opacity:1;" />
      <stop
         style="stop-color:#ffe02b;stop-opacity:1;"
         offset="0.5"
         id="stop19113" />
      <stop
         id="stop19109"
         offset="1"
         style="stop-color:#d87c00;stop-opacity:1;" />
    </linearGradient>
    <linearGradient
       id="linearGradient20092">
      <stop
         style="stop-color:#c2ffba;stop-opacity:1;"
         offset="0"
         id="stop20094" />
      <stop
         id="stop20096"
         offset="0.5"
         style="stop-color:#28e120;stop-opacity:1;" />
      <stop
         style="stop-color:#188481;stop-opacity:1;"
         offset="1"
         id="stop20098" />
    </linearGradient>
    <linearGradient
       id="linearGradient3337">
      <stop
         style="stop-color:#bae9ff;stop-opacity:1;"
         offset="0"
         id="stop3339" />
      <stop
         id="stop3341"
         offset="0.5"
         style="stop-color:#662bff;stop-opacity:1;" />
      <stop
         style="stop-color:#8a00d8;stop-opacity:1;"
         offset="1"
         id="stop3343" />
    </linearGradient>
    <linearGradient
       id="linearGradient3348">
      <stop
         id="stop3350"
         offset="0"
         style="stop-color:#ffffff;stop-opacity:1;" />
      <stop
         style="stop-color:#b9b9b9;stop-opacity:1;"
         offset="0.5"
         id="stop3352" />
      <stop
         id="stop3354"
         offset="1"
         style="stop-color:#919191;stop-opacity:1;" />
    </linearGradient>
    <radialGradient
       inkscape:collect="always"
       xlink:href="#linearGradient19105"
       id="radialGradient3276"
       gradientUnits="userSpaceOnUse"
       gradientTransform="matrix(0.8500516,-8.3141385e-2,9.9091689e-2,1.462186,-1083.0589,-1860.5133)"
       cx="1101.7786"
       cy="1443.2332"
       fx="1070.7589"
       fy="1405.7668"
       r="128.06168" />
    <radialGradient
       inkscape:collect="always"
       xlink:href="#linearGradient20092"
       id="radialGradient3300"
       gradientUnits="userSpaceOnUse"
       gradientTransform="matrix(1.0773782,7.7200246e-8,-7.9972563e-8,1.1160674,-20.17022,-160.29055)"
       cx="260.67188"
       cy="1381.0154"
       fx="220.19641"
       fy="1337.3019"
       r="125.54063" />
    <radialGradient
       inkscape:collect="always"
       xlink:href="#linearGradient19078"
       id="radialGradient5441"
       gradientUnits="userSpaceOnUse"
       cx="260.66202"
       cy="1381.0229"
       fx="260.66202"
       fy="1381.0229"
       r="165.13991" />
    <radialGradient
       inkscape:collect="always"
       xlink:href="#linearGradient19105"
       id="radialGradient8356"
       gradientUnits="userSpaceOnUse"
       gradientTransform="matrix(1.0773782,7.7200246e-8,-7.9972563e-8,1.1160674,-20.17022,-160.29055)"
       cx="260.67188"
       cy="1381.0154"
       fx="220.19641"
       fy="1337.3019"
       r="125.54063" />
    <radialGradient
       inkscape:collect="always"
       xlink:href="#linearGradient3337"
       id="radialGradient8360"
       gradientUnits="userSpaceOnUse"
       gradientTransform="matrix(1.0773782,7.7200246e-8,-7.9972563e-8,1.1160674,-20.17022,-160.29055)"
       cx="260.67188"
       cy="1381.0154"
       fx="220.19641"
       fy="1337.3019"
       r="125.54063" />
    <radialGradient
       inkscape:collect="always"
       xlink:href="#linearGradient3348"
       id="radialGradient8364"
       gradientUnits="userSpaceOnUse"
       gradientTransform="matrix(1.0773782,7.7200246e-8,-7.9972563e-8,1.1160674,-20.17022,-160.29055)"
       cx="260.67188"
       cy="1381.0154"
       fx="220.19641"
       fy="1337.3019"
       r="125.54063" />
    <radialGradient
       inkscape:collect="always"
       xlink:href="#linearGradient19105"
       id="radialGradient14195"
       gradientUnits="userSpaceOnUse"
       gradientTransform="matrix(0.2792664,-2.112386e-2,3.2554481e-2,0.3715,-194.69471,-420.34048)"
       cx="1101.7786"
       cy="1443.2332"
       fx="1070.7589"
       fy="1405.7668"
       r="128.06168" />
    <linearGradient
       inkscape:collect="always"
       xlink:href="#linearGradient20092"
       id="linearGradient22056"
       x1="200.90141"
       y1="71.833313"
       x2="240.89772"
       y2="119.59601"
       gradientUnits="userSpaceOnUse" />
  </defs>
  <sodipodi:namedview
     id="base"
     pagecolor="#ffffff"
     bordercolor="#666666"
     borderopacity="1.0"
     gridtolerance="10000"
     guidetolerance="10"
     objecttolerance="10"
     inkscape:pageopacity="0.0"
     inkscape:pageshadow="2"
     inkscape:zoom="2.4675312"
     inkscape:cx="53.420573"
     inkscape:cy="107.69431"
     inkscape:document-units="px"
     inkscape:current-layer="layer1"
     width="256px"
     height="256px"
     gridspacingx="1px"
     gridspacingy="1px"
     gridempcolor="#323232"
     gridempopacity="0.75294118"
     gridempspacing="64"
     inkscape:grid-points="true"
     showgrid="true"
     inkscape:window-width="1150"
     inkscape:window-height="830"
     inkscape:window-x="0"
     inkscape:window-y="6"
     gridcolor="#bbbbbb"
     gridopacity="0.45490196" />
  <metadata
     id="metadata2417">
    <rdf:RDF>
      <cc:Work
         rdf:about="">
        <dc:format>image/svg+xml</dc:format>
        <dc:type
           rdf:resource="http://purl.org/dc/dcmitype/StillImage" />
      </cc:Work>
    </rdf:RDF>
  </metadata>
  <g
     inkscape:label="Image"
     inkscape:groupmode="layer"
     id="layer1">
    <path
       id="FillArea"
       style="color:#000000;fill:#868686;fill-opacity:0;fill-rule:evenodd;stroke:none;stroke-width:2;stroke-linecap:round;stroke-linejoin:round;stroke-miterlimit:4;stroke-dashoffset:0;stroke-opacity:1;marker:none;marker-start:none;marker-mid:none;marker-end:none;visibility:visible;display:inline;overflow:visible;enable-background:accumulate;opacity:1"
       d="M 64,32 C 64,49.664 49.664,64 32,64 C 14.336,64 0,49.664 0,32 C 0,14.336 14.336,3.5527137e-15 32,0 C 49.664,-7.1054274e-15 64,14.336 64,32 z M 128,32 C 128,49.664 113.664,64 96,64 C 78.336,64 64,49.664 64,32 C 64,14.336 78.336,3.5527137e-15 96,0 C 113.664,-7.1054274e-15 128,14.336 128,32 z M 192,32 C 192,49.664 177.664,64 160,64 C 142.336,64 128,49.664 128,32 C 128,14.336 142.336,3.5527137e-15 160,0 C 177.664,-7.1054274e-15 192,14.336 192,32 z M 256,32 C 256,49.664 241.664,64 224,64 C 206.336,64 192,49.664 192,32 C 192,14.336 206.336,3.5527137e-15 224,0 C 241.664,-7.1054274e-15 256,14.336 256,32 z M 192,96 C 192,113.664 177.664,128 160,128 C 142.336,128 128,113.664 128,96 C 128,78.336 142.336,64 160,64 C 177.664,64 192,78.336 192,96 z M 128,96 C 128,113.664 113.664,128 96,128 C 78.336,128 64,113.664 64,96 C 64,78.336 78.336,64 96,64 C 113.664,64 128,78.336 128,96 z M 64,96 C 64,113.664 49.664,128 32,128 C 14.336,128 0,113.664 0,96 C 0,78.336 14.336,64 32,64 C 49.664,64 64,78.336 64,96 z M 256,96 C 256,113.664 241.664,128 224,128 C 206.336,128 192,113.664 192,96 C 192,78.336 206.336,64 224,64 C 241.664,64 256,78.336 256,96 z M 64,159.99999 C 64,177.66399 49.664,192 32,192 C 14.336,192 9.9999994e-08,177.66399 9.9999994e-08,159.99999 C 9.9999994e-08,142.33599 14.336,127.99999 32,127.99999 C 49.664,127.99999 64,142.33599 64,159.99999 z M 128,160 C 128,177.664 113.664,192 96,192 C 78.336,192 64,177.664 64,160 C 64,142.336 78.336,128 96,128 C 113.664,128 128,142.336 128,160 z M 192,160 C 192,177.664 177.664,192 160,192 C 142.336,192 128,177.664 128,160 C 128,142.336 142.336,128 160,128 C 177.664,128 192,142.336 192,160 z M 256,160 C 256,177.664 241.664,192 224,192 C 206.336,192 192,177.664 192,160 C 192,142.336 206.336,128 224,128 C 241.664,128 256,142.336 256,160 z "
       inkscape:label="#path18146" />
    <path
       sodipodi:type="arc"
       style="color:#000000;fill:url(#radialGradient19084);fill-opacity:1;fill-rule:evenodd;stroke:none;stroke-width:12;stroke-linecap:round;stroke-linejoin:round;marker:none;marker-start:none;marker-mid:none;marker-end:none;stroke-miterlimit:4;stroke-dasharray:none;stroke-dashoffset:0;stroke-opacity:1;visibility:visible;display:inline;overflow:visible;enable-background:accumulate"
       id="IconBorder1"
       sodipodi:cx="260.66202"
       sodipodi:cy="1381.0229"
       sodipodi:rx="165.13991"
       sodipodi:ry="165.13991"
       d="M 425.80193 1381.0229 A 165.13991 165.13991 0 1 1  95.52211,1381.0229 A 165.13991 165.13991 0 1 1  425.80193 1381.0229 z"
       inkscape:export-filename="/home/smart_idiot/QuestHelper/yellow.png"
       inkscape:export-xdpi="17.439758"
       inkscape:export-ydpi="17.439758"
       transform="matrix(0.1937751,0,0,0.1937751,-18.509806,-43.607862)"
       inkscape:label="" />
    <path
       sodipodi:type="inkscape:offset"
       inkscape:radius="-43.497265"
       inkscape:original="M 260.65625 1215.875 C 169.49902 1215.875 95.53125 1289.874 95.53125 1381.0312 C 95.53125 1472.1885 169.49902 1546.1563 260.65625 1546.1562 C 351.81348 1546.1562 425.81248 1472.1885 425.8125 1381.0312 C 425.8125 1289.874 351.81348 1215.875 260.65625 1215.875 z "
       xlink:href="#path18105"
       style="color:#000000;fill:url(#radialGradient3300);fill-opacity:1;fill-rule:evenodd;stroke:#000000;stroke-width:10.10721207;stroke-linecap:round;stroke-linejoin:round;marker:none;marker-start:none;marker-mid:none;marker-end:none;stroke-miterlimit:4;stroke-dasharray:none;stroke-dashoffset:0;stroke-opacity:0.3837838;visibility:visible;display:inline;overflow:visible;enable-background:accumulate"
       id="GreenFill"
       inkscape:href="#path18105"
       d="M 260.65625,1259.375 C 193.03896,1259.375 139.03125,1313.4041 139.03125,1381.0312 C 139.03125,1448.6585 193.02908,1502.6563 260.65625,1502.6562 C 328.28352,1502.6562 382.31249,1448.6486 382.3125,1381.0312 C 382.3125,1313.4139 328.27355,1259.375 260.65625,1259.375 z "
       transform="matrix(0.1978785,0,0,0.1978785,-19.51129,-49.20322)"
       inkscape:export-filename="/home/smart_idiot/QuestHelper/green.png"
       inkscape:export-xdpi="17.439758"
       inkscape:export-ydpi="17.439758"
       inkscape:label="" />
    <path
       style="font-size:327.52102661px;font-style:normal;font-variant:normal;font-weight:800;font-stretch:normal;text-align:start;line-height:125%;writing-mode:lr-tb;text-anchor:start;fill:url(#radialGradient14195);fill-opacity:1;stroke:#6b5b00;stroke-width:2;stroke-linecap:round;stroke-linejoin:round;stroke-miterlimit:4;stroke-dasharray:none;stroke-opacity:1;font-family:Blippo"
       d="M 168.79678,104.11334 C 168.79678,102.03299 168.90437,99.703013 171.59437,98.704447 C 179.12639,95.79197 183.00001,91.215199 183.00001,84.641322 C 183.00001,74.572466 172.45517,67 159.65078,67 C 145.44756,67 135.97873,75.654244 135.97873,86.638451 L 154.16316,86.638451 C 154.27074,84.225253 155.02395,81.146342 159.00518,81.146342 C 161.58756,81.146342 163.73959,82.560978 163.73959,84.641322 C 163.73959,89.634141 152.54913,88.219519 149.96677,95.126255 C 149.32116,97.04017 149.32116,99.037298 149.32116,101.03444 L 149.32116,104.11334 L 168.79678,104.11334 M 147.06154,115.43041 C 147.06154,120.67288 152.65678,125 159.43555,125 C 166.21437,125 172.0248,120.7561 172.0248,115.43041 C 172.0248,110.02152 165.99919,105.69438 159.11276,105.69438 C 152.44155,105.69438 147.06154,110.35438 147.06154,115.43041"
       id="Quest"
       inkscape:label="" />
    <path
       style="fill:url(#linearGradient22056);fill-opacity:1.0;fill-rule:evenodd;stroke:#105800;stroke-width:1.99999988;stroke-linecap:round;stroke-linejoin:round;stroke-miterlimit:4;stroke-dasharray:none;stroke-opacity:1"
       d="M 249.79721,81.648828 L 217.49852,72.833311 L 224.01972,84.161029 L 194.83036,100.32153 L 205.35066,118.59601 L 234.54008,102.43553 L 240.8079,113.32319 L 249.79721,81.648828 z "
       id="Waypoint"
       sodipodi:nodetypes="cccccccc"
       inkscape:export-filename="/home/smart_idiot/QuestHelper/waypoint.png"
       inkscape:export-xdpi="17.439758"
       inkscape:export-ydpi="17.439758"
       inkscape:label="" />
    <path
       id="Monster"
       style="fill:#000000;fill-opacity:1;fill-rule:evenodd;stroke:none;stroke-width:1.00000012px;stroke-linecap:butt;stroke-linejoin:miter;stroke-opacity:1"
       d="M 17,9 L 8,24 L 19,22 C 19,20 20,19 22,19 C 24,19 24,20 24,21 L 29.974796,20.301941 L 17,9 z M 48,9 L 35,20 L 47,22 C 47,20 47,19 49,19 C 51,19 51,20 51,22 L 56,23 L 48,9 z M 32,48 L 23,55 L 17,44 L 13,46 L 11,39 L 19,34 L 23,39 L 32,32 L 42,39 L 46,34 L 53,39 L 52,46 L 48,44 L 42,55 L 32,48 z "
       sodipodi:nodetypes="ccccccccccccccccccccccccccccc"
       inkscape:label="" />
    <use
       x="0"
       y="0"
       xlink:href="#IconBorder1"
       id="IconBorder2"
       transform="translate(63.999995,0)"
       width="256"
       height="256"
       inkscape:label="" />
    <use
       x="0"
       y="0"
       xlink:href="#IconBorder1"
       id="IconBorder3"
       transform="translate(128,-2.4224698e-7)"
       width="256"
       height="256"
       inkscape:label="" />
    <path
       inkscape:label=""
       transform="matrix(0.1937751,0,0,0.1937751,173.49019,-43.607858)"
       inkscape:export-ydpi="17.439758"
       inkscape:export-xdpi="17.439758"
       inkscape:export-filename="/home/smart_idiot/QuestHelper/yellow.png"
       d="M 425.80193 1381.0229 A 165.13991 165.13991 0 1 1  95.52211,1381.0229 A 165.13991 165.13991 0 1 1  425.80193 1381.0229 z"
       sodipodi:ry="165.13991"
       sodipodi:rx="165.13991"
       sodipodi:cy="1381.0229"
       sodipodi:cx="260.66202"
       id="IconBorder4"
       style="color:#000000;fill:url(#radialGradient5441);fill-opacity:1;fill-rule:evenodd;stroke:none;stroke-width:12;stroke-linecap:round;stroke-linejoin:round;marker:none;marker-start:none;marker-mid:none;marker-end:none;stroke-miterlimit:4;stroke-dasharray:none;stroke-dashoffset:0;stroke-opacity:1;visibility:visible;display:inline;overflow:visible;enable-background:accumulate"
       sodipodi:type="arc" />
    <path
       sodipodi:type="inkscape:offset"
       inkscape:radius="-43.497265"
       inkscape:original="M 260.65625 1215.875 C 169.49902 1215.875 95.53125 1289.874 95.53125 1381.0312 C 95.53125 1472.1885 169.49902 1546.1563 260.65625 1546.1562 C 351.81348 1546.1562 425.81248 1472.1885 425.8125 1381.0312 C 425.8125 1289.874 351.81348 1215.875 260.65625 1215.875 z "
       xlink:href="#path18105"
       style="color:#000000;fill:url(#radialGradient8356);fill-opacity:1.0;fill-rule:evenodd;stroke:#000000;stroke-width:10.10721207;stroke-linecap:round;stroke-linejoin:round;marker:none;marker-start:none;marker-mid:none;marker-end:none;stroke-miterlimit:4;stroke-dasharray:none;stroke-dashoffset:0;stroke-opacity:0.3837838;visibility:visible;display:inline;overflow:visible;enable-background:accumulate"
       id="YellowFill"
       inkscape:href="#path18105"
       d="M 260.65625,1259.375 C 193.03896,1259.375 139.03125,1313.4041 139.03125,1381.0312 C 139.03125,1448.6585 193.02908,1502.6563 260.65625,1502.6562 C 328.28352,1502.6562 382.31249,1448.6486 382.3125,1381.0312 C 382.3125,1313.4139 328.27355,1259.375 260.65625,1259.375 z "
       transform="matrix(0.1978785,0,0,0.1978785,44.348576,-49.343355)"
       inkscape:export-filename="/home/smart_idiot/QuestHelper/green.png"
       inkscape:export-xdpi="17.439758"
       inkscape:export-ydpi="17.439758"
       inkscape:label="" />
    <path
       sodipodi:type="inkscape:offset"
       inkscape:radius="-43.497265"
       inkscape:original="M 260.65625 1215.875 C 169.49902 1215.875 95.53125 1289.874 95.53125 1381.0312 C 95.53125 1472.1885 169.49902 1546.1563 260.65625 1546.1562 C 351.81348 1546.1562 425.81248 1472.1885 425.8125 1381.0312 C 425.8125 1289.874 351.81348 1215.875 260.65625 1215.875 z "
       xlink:href="#path18105"
       style="color:#000000;fill:url(#radialGradient8360);fill-opacity:1.0;fill-rule:evenodd;stroke:#000000;stroke-width:10.10721207;stroke-linecap:round;stroke-linejoin:round;marker:none;marker-start:none;marker-mid:none;marker-end:none;stroke-miterlimit:4;stroke-dasharray:none;stroke-dashoffset:0;stroke-opacity:0.3837838;visibility:visible;display:inline;overflow:visible;enable-background:accumulate"
       id="BlueFill"
       inkscape:href="#path18105"
       d="M 260.65625,1259.375 C 193.03896,1259.375 139.03125,1313.4041 139.03125,1381.0312 C 139.03125,1448.6585 193.02908,1502.6563 260.65625,1502.6562 C 328.28352,1502.6562 382.31249,1448.6486 382.3125,1381.0312 C 382.3125,1313.4139 328.27355,1259.375 260.65625,1259.375 z "
       transform="matrix(0.1978785,0,0,0.1978785,108.34858,-49.203236)"
       inkscape:export-filename="/home/smart_idiot/QuestHelper/green.png"
       inkscape:export-xdpi="17.439758"
       inkscape:export-ydpi="17.439758"
       inkscape:label="" />
    <path
       sodipodi:type="inkscape:offset"
       inkscape:radius="-43.497265"
       inkscape:original="M 260.65625 1215.875 C 169.49902 1215.875 95.53125 1289.874 95.53125 1381.0312 C 95.53125 1472.1885 169.49902 1546.1563 260.65625 1546.1562 C 351.81348 1546.1562 425.81248 1472.1885 425.8125 1381.0312 C 425.8125 1289.874 351.81348 1215.875 260.65625 1215.875 z "
       xlink:href="#path18105"
       style="color:#000000;fill:url(#radialGradient8364);fill-opacity:1.0;fill-rule:evenodd;stroke:#000000;stroke-width:10.10721207;stroke-linecap:round;stroke-linejoin:round;marker:none;marker-start:none;marker-mid:none;marker-end:none;stroke-miterlimit:4;stroke-dasharray:none;stroke-dashoffset:0;stroke-opacity:0.3837838;visibility:visible;display:inline;overflow:visible;enable-background:accumulate"
       id="GrayFill"
       inkscape:href="#path18105"
       d="M 260.65625,1259.375 C 193.03896,1259.375 139.03125,1313.4041 139.03125,1381.0312 C 139.03125,1448.6585 193.02908,1502.6563 260.65625,1502.6562 C 328.28352,1502.6562 382.31249,1448.6486 382.3125,1381.0312 C 382.3125,1313.4139 328.27355,1259.375 260.65625,1259.375 z "
       transform="matrix(0.1978785,0,0,0.1978785,172.34858,-49.343355)"
       inkscape:export-filename="/home/smart_idiot/QuestHelper/green.png"
       inkscape:export-xdpi="17.439758"
       inkscape:export-ydpi="17.439758"
       inkscape:label="" />
    <path
       id="Item"
       style="fill:#000000;fill-opacity:1;fill-rule:evenodd;stroke:none;stroke-width:1px;stroke-linecap:butt;stroke-linejoin:miter;stroke-opacity:1"
       d="M 118,27 L 112,30 C 106,33 101,37 101,48 L 101,55 L 118,45 L 118,27 z M 106.93839,18.330516 C 98.08778,14.04699 91,16 82,20 L 80,21 L 97,31 L 112,21 L 106.93839,18.330516 z M 88.717959,34.870288 C 79,32 76,36 76,43 L 76,45 L 92,54 L 92,36 L 88.717959,34.870288 z M 71,45 L 71.103295,19.006839 L 96,5 L 121,20 L 121,46 L 97,60 L 71,45 z "
       inkscape:export-filename="/home/smart_idiot/QuestHelper/item.png"
       inkscape:export-xdpi="17.439758"
       inkscape:export-ydpi="17.439758"
       sodipodi:nodetypes="ccccccccccccccccccccccccc"
       inkscape:label="" />
    <path
       id="Event"
       style="color:#000000;fill:#000000;fill-opacity:1;fill-rule:evenodd;stroke:none;stroke-width:0.99999988;stroke-linecap:round;stroke-linejoin:round;marker:none;marker-start:none;marker-mid:none;marker-end:none;stroke-miterlimit:4;stroke-dashoffset:0;stroke-opacity:1;visibility:visible;display:inline;overflow:visible;enable-background:accumulate"
       d="M 237.38397,6 L 234.92645,10.208078 L 237.30983,11.472562 L 235.35015,14.83095 C 231.91901,13.23658 228.06478,12.342495 223.99472,12.342458 C 220.07495,12.342458 216.36532,13.17351 213.03117,14.658953 L 211.26217,11.614139 L 213.63495,10.349679 L 211.17741,6.1415888 L 202.19476,10.906074 L 204.64165,15.124268 L 206.84497,13.950853 L 208.68811,17.117025 C 202.21165,21.634182 198,28.936672 198,37.176275 C 198,50.881716 209.64274,61.999941 223.99472,62 C 238.34666,62 250,50.881694 250,37.176275 C 250,29.080273 245.93625,21.883067 239.65086,17.349706 L 241.71642,13.809217 L 243.91973,14.982655 L 246.36668,10.774566 L 237.38397,6 z M 242.08253,37.359216 C 242.08253,46.891758 233.981,54.62828 223.99882,54.62828 C 214.01661,54.62828 205.91509,46.891758 205.91509,37.359216 C 205.91509,27.826673 214.01661,20.090152 223.99882,20.090152 C 233.981,20.090152 242.08253,27.826673 242.08253,37.359216 z M 231.31181,23.57758 C 231.31181,23.57758 224.88133,32.35614 222.06385,35.933366 C 221.76579,36.311772 221.72725,36.659626 221.64109,37.036268 C 221.64109,38.271148 222.69132,39.2741 223.98451,39.274136 C 224.84723,39.173993 225.52687,38.811589 225.98662,38.134162 L 231.31181,23.57758 z "
       inkscape:export-filename="/home/smart_idiot/QuestHelper/event.png"
       inkscape:export-xdpi="17.439758"
       inkscape:export-ydpi="17.439758"
       inkscape:label="" />
    <path
       id="Reputation"
       style="fill:#000000;fill-opacity:1;fill-rule:evenodd;stroke:none;stroke-width:1px;stroke-linecap:butt;stroke-linejoin:miter;stroke-opacity:1"
       d="M 17,92 C 20,89 21,88 22,84 C 22.766965,80.93214 23,78 23,73 C 23,73 23.592389,73.176437 24,73 C 25.738859,72.247441 26.934437,70.505335 29,75 C 30.315497,77.862523 30,82 30,86 C 30,90.454814 29,92 29,92 C 29,92 29.902425,90.855713 31,91 C 38,91 41,91 49,91 C 55,91 55,98 50,98 C 51,98 50,98 51,98 C 56,98 56,106 51,106 C 55,106 55.466651,113 51,113 C 49,113 48.036327,112.88208 47,113 C 50,113 50,119 45,119 C 29,119 27,119 18,119 C 8.9803888,119 8,107 10,100 C 11.132704,96.035535 15,94 17,92 z M 49,98 C 49,98 41.922404,99 39,99 C 36,99 38,96 38,96 C 38,96 37,98 40,98 C 42.922431,98 49,98 49,98 z M 50,106 C 50,106 42,107 39,107 C 36.077577,107 38,104 38,104 C 38,104 37,106 40,106 C 42.92249,106 50,106 50,106 z M 46,113 C 46,113 38.922402,114 36,114 C 33,114 35,111 35,111 C 35,111 34,113 37,113 C 39.922461,113 46,113 46,113 z M 40,102 C 39.815152,102.98176 39.394367,104.5154 40,105 C 40,105 43.71139,106.02328 44,104 C 44.335511,101.64787 40,102 40,102 z M 40,94 C 39.815152,94.981759 39.394366,96.515423 40,97 C 40,97 43.711391,98.023284 44,96 C 44.335564,93.647872 40,94 40,94 z M 37,109 C 36.815152,109.98176 36.394396,111.51543 37,112 C 37,112 40.711391,113.02328 41,111 C 41.335539,108.64787 37,109 37,109 z M 36,115 C 35.815122,115.98176 35.394393,117.5154 36,118 C 36,118 39.711389,119.02329 40,117 C 40.335537,114.6479 36,115 36,115 z M 18,108 C 18,108 27,108 30,105 C 32,103 33,95 33,95 C 33,95 32,101 29,104 C 26,107 18,108 18,108 z "
       sodipodi:nodetypes="cscsssccccccsccssscscsccscsccscscccscccscccscccsccscsc"
       inkscape:export-filename="/home/smart_idiot/QuestHelper/rep.png"
       inkscape:export-xdpi="17.439758"
       inkscape:export-ydpi="17.439758"
       inkscape:label="" />
    <path
       id="Location"
       style="fill:#000000;fill-opacity:1;fill-rule:evenodd;stroke:none;stroke-width:1.00000012px;stroke-linecap:butt;stroke-linejoin:miter;stroke-opacity:1"
       d="M 95,80 C 96,80 97,81 97,82 C 97,83 96,84 95,84 M 98,66 L 95,66 L 95,87 C 95.473589,87.031505 95.669337,87.415869 96,88 L 112.90433,118.05214 C 113.06503,118.40867 113.46301,118.32501 113.33466,117.90162 L 101,79 C 100.20444,76.784731 98,75 96,75 L 96,71 L 97,71 C 98,71 98,71 98,70 L 98,66 z M 95,80 C 94,80 93,81 93,82 C 93,83 94,84 95,84 M 92,66 L 95,66 L 95,87 C 94.526411,87.031505 94.330663,87.415869 94,88 L 77.09567,118.05214 C 76.93497,118.40867 76.53699,118.32501 76.66534,117.90162 L 89,79 C 89.79556,76.784731 92,75 94,75 L 94,71 L 93,71 C 92,71 92,71 92,70 L 92,66 z "
       inkscape:label="" />
    <path
       id="Object"
       style="fill:#000000;fill-opacity:1;fill-rule:evenodd;stroke:none;stroke-width:1px;stroke-linecap:butt;stroke-linejoin:miter;stroke-opacity:1"
       d="M 171,5 C 167,5 163,7 158,7 C 154.45162,7 151,5 148,5 C 144,5 140,9 139,12 C 137,18 136,21 137,24 C 138,27 142.14496,33.908265 144,37 C 147,42 151.87022,44.797856 157,45 C 157,51 155,57 153,62 C 156,60 158,61 160,62 C 162,61 164,60 166,62 C 164,57 163,51 163,45 C 166,45 170,44 171,43 C 173.03838,40.961623 173,37 175,36 C 179,34 182,25 183,22 C 184,19 184,15 182,12 C 180,9 176,5 171,5 z M 163,28 C 164,28 164,29 165,29 C 166,29 166,28 167,28 C 168,28 169,29 169,31 C 169,33 167,34 165,34 C 163,34 161,33 161,31 C 161,29 162,28 163,28 z M 148,14 C 149,14 149,15 150,15 C 151,15 151,14 152,14 C 153,14 154,15 154,17 C 154,19 152,20 150,20 C 148,20 146,19 146,17 C 146,15 147,14 148,14 z M 169,13 C 170,13 170,14 171,14 C 172,14 172,13 173,13 C 174,13 175,14 175,16 C 175,18 173,19 171,19 C 169,19 167,18 167,16 C 167,14 168,13 169,13 z "
       inkscape:label="" />
    <path
       style="fill:#000000;fill-opacity:1;fill-rule:evenodd;stroke:#000000;stroke-width:4;stroke-linecap:round;stroke-linejoin:round;stroke-miterlimit:4;stroke-dasharray:none;stroke-opacity:1"
       d="M 19,138 L 19,183 L 55,160 L 19,138 z "
       id="MenuArrow"
       sodipodi:nodetypes="cccc"
       inkscape:export-filename="/home/smart_idiot/QuestHelper/7.png"
       inkscape:export-xdpi="90.642052"
       inkscape:export-ydpi="90.642052"
       inkscape:label="" />
    <path
       style="fill:#000000;fill-opacity:1;fill-rule:nonzero;stroke:none;stroke-width:1px;stroke-linecap:butt;stroke-linejoin:miter;stroke-opacity:1"
       d="M 221,183 C 226.76904,183 232.68613,179.6012 236,175 C 240.11727,169.28332 228,164 220,164 C 210.92864,164 207.82404,170.89442 213,174 C 218,177 238.42772,176.96534 244,170 C 248,165 245.88457,158.44267 242,155 C 236.56583,150.18402 228.03612,146 221,146 C 215,146 204,148 204,152 C 204,158.67313 215.024,160 219,160 C 225,160 233,158 237.48818,154.55197 C 240.92368,151.91266 243,142 238,139 C 232.17954,135.50772 220,136 214,138 C 207.7644,140.07853 224,146 222,143 C 219.23947,138.8592 230,140 234,141 C 239.95604,142.48901 237,151 231.32026,153.32441 C 225.26881,155.80094 214.58349,157.58349 210,153 C 208,151 216,150 221,150 C 228.33988,150 240.64433,155.86599 242,164 C 243,170 218,177 216,170 C 215.23764,167.33174 226.05597,168.13012 230,171 C 233.76235,173.73768 227.46697,179.92554 219.56579,180.82229 C 218,181 218,183 221,183 z "
       id="path3235"
       sodipodi:nodetypes="csssssssssssssssssssss" />
    <path
       sodipodi:type="arc"
       style="opacity:1;color:#000000;fill:#000000;fill-opacity:1;fill-rule:nonzero;stroke:none;stroke-width:4;stroke-linecap:round;stroke-linejoin:round;marker:none;marker-start:none;marker-mid:none;marker-end:none;stroke-miterlimit:4;stroke-dasharray:none;stroke-dashoffset:0;stroke-opacity:1;visibility:visible;display:inline;overflow:visible;enable-background:accumulate"
       id="MenuSelected"
       sodipodi:cx="94.5"
       sodipodi:cy="150.5"
       sodipodi:rx="22.5"
       sodipodi:ry="11.5"
       d="M 117 150.5 A 22.5 11.5 0 1 1  72,150.5 A 22.5 11.5 0 1 1  117 150.5 z"
       transform="matrix(1.0222223,0,0,2.0000002,-0.600005,-141.00003)"
       inkscape:label="" />
  </g>
</svg>
